<svg xmlns="http://www.w3.org/2000/svg" version="1.1" xmlns:xlink="http://www.w3.org/1999/xlink" xmlns:svgjs="http://svgjs.dev/svgjs" width="1000" height="625" viewBox="0 0 1000 625"><g transform="matrix(1,0,0,1,0,0)"><svg viewBox="0 0 576 360" data-background-color="#97978d" preserveAspectRatio="xMidYMid meet" height="625" width="1000" xmlns="http://www.w3.org/2000/svg" xmlns:xlink="http://www.w3.org/1999/xlink"><g id="tight-bounds" transform="matrix(1,0,0,1,0,0)"><svg viewBox="0 0 576 360" height="360" width="576"><g><svg></svg></g><g><svg viewBox="0 0 576 360" height="360" width="576"><g><path xmlns="http://www.w3.org/2000/svg" d="M132.115 90l155.885-90 155.885 90v180l-155.885 90-155.885-90zM136.785 267.304l151.215 87.304 151.215-87.304v-174.608l-151.215-87.304-151.215 87.304z" fill="#ffffff" fill-rule="nonzero" stroke="none" stroke-width="1" stroke-linecap="butt" stroke-linejoin="miter" stroke-miterlimit="10" stroke-dasharray="" stroke-dashoffset="0" font-family="none" font-weight="none" font-size="none" text-anchor="none" style="mix-blend-mode: normal" data-fill-palette-color="tertiary"></path></g><g transform="matrix(1,0,0,1,210.93132273752786,99)"><svg viewBox="0 0 154.13735452494427 162" height="162" width="154.13735452494427"><g><svg viewBox="0 0 230.4 242.1528520132975" height="162" width="154.13735452494427"><g transform="matrix(1,0,0,1,0,164.75528773724878)"><svg viewBox="0 0 230.4 77.39756427604871" height="77.39756427604871" width="230.4"><g id="textblocktransform"><svg viewBox="0 0 230.4 77.39756427604871" height="77.39756427604871" width="230.4" id="textblock"><g><svg viewBox="0 0 230.4 77.39756427604871" height="77.39756427604871" width="230.4"><g transform="matrix(1,0,0,1,0,0)"><svg width="230.4" viewBox="1.149999976158142 -38.75 147.79000854492188 49.650001525878906" height="77.39756427604871" data-palette-color="#ffffff"><path d="M20.95-6.35Q22.9-5.5 22.9-4.05L22.9-4.05Q22.9-3.15 22-2.3 21.1-1.45 19.95-1.1L19.95-1.1Q17.2-0.8 16.05-0.75L16.05-0.75Q9.35-0.2 6.6 0.3L6.6 0.3Q6.15 0.6 4.7 0.6L4.7 0.6Q3.3 0.6 2.23-0.7 1.15-2 1.15-3.4L1.15-3.4Q1.15-3.95 1.3-4.45L1.3-4.45 7.7-29.75Q8.25-31.95 8.88-32.68 9.5-33.4 11.15-33.4L11.15-33.4Q12.5-33.4 13.48-33.1 14.45-32.8 14.5-32.2L14.5-32.2Q14.5-30.8 8.05-5L8.05-5Q12.45-5.75 19.25-6.2L19.25-6.2 20.95-6.35ZM29.85-29.7Q29.85-31.25 30.82-32.45 31.8-33.65 33.55-33.65L33.55-33.65Q35.4-33.65 36.77-32.5 38.15-31.35 38.15-29.9L38.15-29.9Q38.15-28.45 36.75-27.4 35.35-26.35 33.5-26.35L33.5-26.35Q31.7-26.35 30.77-27.28 29.85-28.2 29.85-29.7L29.85-29.7ZM35.1-20.85Q32.45-10.05 31.05-4.6L31.05-4.6Q30.85-3.8 30.85-2.85L30.85-2.85 30.9-1.45Q30.9-0.6 30.37-0.25 29.85 0.1 28.15 0.15L28.15 0.15Q26.5 0.15 25.65-0.2 24.8-0.55 24.8-1.7L24.8-1.7Q24.8-2.25 26.07-7.55 27.35-12.85 29.55-21.35L29.55-21.35 28.4-22.85Q28.25-23 28.25-23.2L28.25-23.2Q28.25-23.7 29.35-24.03 30.45-24.35 32.4-24.35L32.4-24.35Q34.1-24.35 34.57-23.38 35.05-22.4 35.1-20.85L35.1-20.85ZM43.5-2.3Q43.2-1.6 43.05-1.05L43.05-1.05Q42.6 0.1 42.25 0.63 41.9 1.15 41.15 1.15L41.15 1.15 39.75 1.2Q38.5 1.2 37.75 0.68 37 0.15 36.9-1.45L36.9-1.45Q36.95-1.5 37.4-2.58 37.85-3.65 38.3-5.5L38.3-5.5Q38.9-7.95 39.5-10.35 40.1-12.75 40.65-15L40.65-15Q41.4-17.95 42.85-23.83 44.3-29.7 45.1-33.15L45.1-33.15Q45.05-33.9 45-35.23 44.95-36.55 44.95-37.3L44.95-37.3Q45.1-37.95 46.07-38.35 47.05-38.75 47.85-38.75L47.85-38.75Q49.1-38.75 50.45-37.9 51.8-37.05 51.85-35.85L51.85-35.85 48.1-21.05Q49.45-22.6 51.37-23.23 53.3-23.85 54.95-23.85L54.95-23.85Q57.3-23.85 59.17-22.5 61.05-21.15 62.12-18.93 63.2-16.7 63.2-14.25L63.2-14.25Q63.2-10.65 61.5-7.18 59.8-3.7 56.55-1.48 53.3 0.75 48.95 0.75L48.95 0.75Q47.7 0.75 45.87-0.15 44.05-1.05 43.5-2.3L43.5-2.3ZM44.7-6.45Q45.35-5.3 46.65-4.4 47.95-3.5 49-3.5L49-3.5Q51.35-3.5 53.3-5.58 55.25-7.65 56.4-10.53 57.55-13.4 57.55-15.7L57.55-15.7Q57.55-17.3 56.7-18.35 55.84-19.4 54.2-19.4L54.2-19.4Q52.75-19.4 51.1-18.75 49.45-18.1 48.17-16.88 46.9-15.65 46.45-14.05L46.45-14.05 44.7-6.45ZM86.19-11.1Q79.64-10 75.74-9.1L75.74-9.1Q74.54-7.2 74.19-6.55L74.19-6.55Q73.14-4.7 72.32-3.48 71.49-2.25 70.54-1.3L70.54-1.3Q69.49-0.25 68.82 0.2 68.14 0.65 67.24 0.65L67.24 0.65Q65.74 0.65 64.62-0.03 63.49-0.7 63.49-1.4L63.49-1.4Q63.59-1.5 64.59-3.63 65.59-5.75 68.29-8.95L68.29-8.95Q68.29-9.35 68.04-9.95 67.79-10.55 67.79-10.65L67.79-10.65Q67.79-12.1 72.34-14.15L72.34-14.15Q74.89-17.95 77.72-21.65 80.54-25.35 84.64-30.4L84.64-30.4Q85.64-31.65 87.19-32.45 88.74-33.25 90.29-33.25L90.29-33.25Q91.89-33.25 92.69-32.95 93.49-32.65 93.72-32.15 93.94-31.65 93.94-30.75L93.94-30.75Q93.74-29.25 93.69-28.5L93.69-28.5Q92.94-22.45 92.57-18.13 92.19-13.8 92.19-9.5L92.19-9.5Q92.19-5.55 92.54-2.25L92.54-2.25Q92.39-1.05 91.49-0.08 90.59 0.9 89.39 0.9L89.39 0.9Q87.09 0.9 86.37-0.25 85.64-1.4 85.64-4.15L85.64-4.15Q85.64-6.15 86.19-11.1L86.19-11.1ZM79.69-14.85Q80.59-15.05 82.44-15.3L82.44-15.3 86.44-15.9Q86.89-22.85 87.49-25.9L87.49-25.9Q85.54-23.6 79.69-14.85L79.69-14.85ZM103.69-2.2Q103.64-1.9 102.37 3.28 101.09 8.45 100.59 9.8L100.59 9.8Q100.39 10.35 99.39 10.63 98.39 10.9 97.94 10.9L97.94 10.9Q96.84 10.9 96.12 10.2 95.39 9.5 95.34 8.1L95.34 8.1 98.84-6.25Q100.84-14.1 102.14-19.65L102.14-19.65Q102.14-19.95 101.79-21.25L101.79-21.25Q101.64-22.05 101.49-22.75 101.34-23.45 101.29-23.8L101.29-23.8Q101.39-24.45 102.32-24.85 103.24-25.25 104.04-25.25L104.04-25.25Q105.24-25.25 106.42-24.4 107.59-23.55 107.74-22.35L107.74-22.35 107.59-21.05Q109.84-23.85 113.34-23.85L113.34-23.85Q116.19-23.85 118.27-22.48 120.34-21.1 121.44-18.78 122.54-16.45 122.54-13.65L122.54-13.65Q122.54-9.9 121.09-6.6 119.64-3.3 116.74-1.28 113.84 0.75 109.74 0.75L109.74 0.75Q108.44 0.75 106.39-0.13 104.34-1 103.69-2.2L103.69-2.2ZM105.24-8.55Q105.14-7.95 105.14-7.7L105.14-7.7Q105.19-6.45 105.97-5.5 106.74-4.55 107.79-4.03 108.84-3.5 109.54-3.5L109.54-3.5Q111.74-3.5 113.42-5.18 115.09-6.85 115.99-9.33 116.89-11.8 116.89-14.05L116.89-14.05Q116.89-16.15 115.77-17.78 114.64-19.4 112.94-19.4L112.94-19.4Q111.04-19.4 109.82-18.57 108.59-17.75 107.04-16.05L107.04-16.05 105.24-8.55ZM130.09-2.2Q130.04-1.9 128.76 3.28 127.49 8.45 126.99 9.8L126.99 9.8Q126.79 10.35 125.79 10.63 124.79 10.9 124.34 10.9L124.34 10.9Q123.24 10.9 122.51 10.2 121.79 9.5 121.74 8.1L121.74 8.1 125.24-6.25Q127.24-14.1 128.54-19.65L128.54-19.65Q128.54-19.95 128.19-21.25L128.19-21.25Q128.04-22.05 127.89-22.75 127.74-23.45 127.69-23.8L127.69-23.8Q127.79-24.45 128.71-24.85 129.64-25.25 130.44-25.25L130.44-25.25Q131.64-25.25 132.81-24.4 133.99-23.55 134.14-22.35L134.14-22.35 133.99-21.05Q136.24-23.85 139.74-23.85L139.74-23.85Q142.59-23.85 144.66-22.48 146.74-21.1 147.84-18.78 148.94-16.45 148.94-13.65L148.94-13.65Q148.94-9.9 147.49-6.6 146.04-3.3 143.14-1.28 140.24 0.75 136.14 0.75L136.14 0.75Q134.84 0.75 132.79-0.13 130.74-1 130.09-2.2L130.09-2.2ZM131.64-8.55Q131.54-7.95 131.54-7.7L131.54-7.7Q131.59-6.45 132.36-5.5 133.14-4.55 134.19-4.03 135.24-3.5 135.94-3.5L135.94-3.5Q138.14-3.5 139.81-5.18 141.49-6.85 142.39-9.33 143.29-11.8 143.29-14.05L143.29-14.05Q143.29-16.15 142.16-17.78 141.04-19.4 139.34-19.4L139.34-19.4Q137.44-19.4 136.21-18.57 134.99-17.75 133.44-16.05L133.44-16.05 131.64-8.55Z" opacity="1" transform="matrix(1,0,0,1,0,0)" fill="#ffffff" class="wordmark-text-0" data-fill-palette-color="primary" id="text-0"></path></svg></g></svg></g></svg></g></svg></g><g transform="matrix(1,0,0,1,51.094063515408095,0)"><svg viewBox="0 0 128.21187296918382 128.21187296918382" height="128.21187296918382" width="128.21187296918382"><g><svg></svg></g><g id="icon-0"><svg viewBox="0 0 128.21187296918382 128.21187296918382" height="128.21187296918382" width="128.21187296918382"><g><path d="M0 64.106c0-35.405 28.701-64.106 64.106-64.106 35.405 0 64.106 28.701 64.106 64.106 0 35.405-28.701 64.106-64.106 64.106-35.405 0-64.106-28.701-64.106-64.106zM64.106 121.232c31.55 0 57.126-25.576 57.126-57.126 0-31.55-25.576-57.126-57.126-57.126-31.55 0-57.126 25.576-57.126 57.126 0 31.55 25.576 57.126 57.126 57.126z" data-fill-palette-color="accent" fill="#ffffff" stroke="transparent"></path></g><g transform="matrix(1,0,0,1,30.8755925319445,34.46022943065002)"><svg viewBox="0 0 66.46068790529482 59.29141410788378" height="59.29141410788378" width="66.46068790529482"><g><svg xmlns="http://www.w3.org/2000/svg" xmlns:xlink="http://www.w3.org/1999/xlink" version="1.1" x="0" y="0" viewBox="8.386999130249023 13.004999160766602 84.19200134277344 75.1100082397461" enable-background="new 0 0 100 100" xml:space="preserve" height="59.29141410788378" width="66.46068790529482" class="icon-s-0" data-fill-palette-color="accent" id="s-0"><g fill="#ffffff" data-fill-palette-color="accent"><path d="M49.569 22.967c-9.975-5.691-20.677-9.125-31.045-9.962v58.351c10.367 0.814 21.05 4.154 31.045 9.699V22.967z" fill="#ffffff" data-fill-palette-color="accent"></path><path d="M82.444 13.005c-10.368 0.838-21.071 4.271-31.045 9.962v58.087c9.993-5.545 20.679-8.885 31.045-9.699V13.005z" fill="#ffffff" data-fill-palette-color="accent"></path><path d="M49.229 84.073c0.814 0.278 1.671 0.29 2.485 0.012 11.657-5.043 23.865-7.313 35.798-6.79V19.524c-1.074-0.048-2.155-0.059-3.24-0.055v53.594l-0.852 0.056c-10.672 0.697-21.732 4.177-32.021 10.048-0.594 0.203-1.237 0.203-1.83 0-10.29-5.871-21.349-9.351-32.021-10.048l-0.854-0.056V19.469c-1.084-0.004-2.166 0.006-3.239 0.055v57.771C25.387 76.771 37.569 79.03 49.229 84.073z" fill="#ffffff" data-fill-palette-color="accent"></path><path d="M92.579 26.009c-1.07-0.149-2.157-0.228-3.237-0.335v53.55l-0.968-0.056c-12.195-0.699-25.06 1.777-36.975 7.065l-0.916 0.381-0.915-0.381c-11.917-5.288-24.781-7.765-36.976-7.065l-0.967 0.056v-53.55c-1.081 0.108-2.168 0.187-3.238 0.335v58.707c0.594 0.307 1.044 0.748 1.044 0.748 12.951-1.75 26.393-1.536 39.18 2.651 0.588-0.058 1.212-0.095 1.873-0.095 0.661 0 1.285 0.037 1.872 0.095 12.785-4.188 26.229-4.401 39.179-2.651 0 0 0.474-0.462 1.044-0.748V26.009z" fill="#ffffff" data-fill-palette-color="accent"></path></g></svg></g></svg></g></svg></g></svg></g><g></g></svg></g></svg></g></svg></g><defs></defs></svg><rect width="576" height="360" fill="none" stroke="none" visibility="hidden"></rect></g></svg></g></svg>